#!OML:ASF E:\pregnant2\Project 1\Capture day 1\Session 1\pregnant2.ASF
:FULLY-SPECIFIED
:DEGREES
1207
root 5.19047 16.7391 5.80778 25.6008 -4.63306 0.640065
lowerback -8.49757 -1.28732 -2.66972
upperback -13.2372 -1.61184 1.67853
thorax -9.21774 -0.477662 3.27802
lowerneck -10.6494 -0.659327 -4.28118
upperneck 49.3205 1.75124 -3.27332
head 22.4718 -0.672988 -0.639377
rclavicle 1.0312e-014 1.27222e-014
rhumerus -45.2192 4.57845 -73.3586
rradius 28.0763
rwrist 16.8285
rhand -13.0954 -14.266
rfingers 7.12502
rthumb 13.0012 -43.8409
lclavicle 1.0312e-014 1.27222e-014
lhumerus -54.4221 8.42426 75.2409
lradius 27.5597
lwrist -8.31245
lhand -7.99498 25.4672
lfingers 7.12502
lthumb 17.9137 54.6622
rfemur -47.9082 2.72315 24.3972
rtibia 45.355
rfoot -17.0035 -11.6377
rtoes -8.51769
lfemur -53.9354 8.26326 -25.5365
ltibia 98.3565
lfoot -10.416 1.96284
ltoes -18.4002
1208
root 5.1759 16.7389 5.90905 25.5385 -4.63122 0.686149
lowerback -8.4586 -1.27723 -2.85518
upperback -13.1269 -1.59234 1.68572
thorax -9.11193 -0.453108 3.38754
lowerneck -10.7365 -0.720448 -4.37161
upperneck 49.2895 1.61597 -3.12643
head 22.4708 -0.722236 -0.567377
rclavicle -2.03257e-014 5.1684e-015
rhumerus -44.7815 4.67138 -73.6409
rradius 28.2817
rwrist 16.7352
rhand -13.4133 -14.536
rfingers 7.12502
rthumb 12.6947 -44.1301
lclavicle -2.03257e-014 5.1684e-015
lhumerus -54.4338 8.00132 75.761
lradius 27.6947
lwrist -9.39163
lhand -7.24302 24.5994
lfingers 7.12502
lthumb 18.6371 53.7266
rfemur -47.4586 3.04134 24.2372
rtibia 45.4537
rfoot -17.3787 -12.0677
rtoes -8.51416
lfemur -54.8075 7.95048 -25.6356
ltibia 98.4763
lfoot -10.7466 2.1393
ltoes -18.5355
1209
root 5.16313 16.7303 5.99774 25.4767 -4.54633 0.642377
lowerback -8.30723 -1.25216 -2.93794
upperback -13.0788 -1.55589 1.73424
thorax -9.14444 -0.423288 3.48885
lowerneck -10.7534 -0.80589 -4.42877
upperneck 49.2653 1.46774 -3.06988
head 22.453 -0.779878 -0.554005
rclavicle 5.889e-015 4.77083e-015
rhumerus -44.4496 4.93586 -74.0284
rradius 28.6256
rwrist 16.3665
rhand -13.7516 -14.8112
rfingers 7.12502
rthumb 12.3686 -44.4253
lclavicle 5.889e-015 4.77083e-015
lhumerus -54.582 7.52544 76.3499
lradius 28.0466
lwrist -10.1924
lhand -6.18447 24.3404
lfingers 7.12502
lthumb 19.655 53.3668
rfemur -47.0231 3.35696 24.1971
rtibia 45.5074
rfoot -17.4862 -12.5799
rtoes -9.46456
lfemur -55.7924 7.68325 -25.6363
ltibia 98.5239
lfoot -11.0698 2.44774
ltoes -19.0518
1210
root 5.15459 16.7301 6.09947 25.481 -4.5227 0.493662
lowerback -8.30828 -1.19732 -2.83883
upperback -13.0102 -1.48058 1.76876
thorax -9.07131 -0.394933 3.46896
lowerneck -10.6709 -0.91153 -4.62975
upperneck 49.1915 1.24268 -2.85117
head 22.3461 -0.874116 -0.43672
rclavicle 2.0773e-014 -2.38542e-015
rhumerus -44.1169 5.1351 -74.4419
rradius 28.9403
rwrist 16.2963
rhand -13.6864 -15.6277
rfingers 7.12502
rthumb 12.4315 -45.238
lclavicle 2.0773e-014 -2.38542e-015
lhumerus -54.6961 7.05104 76.8706
lradius 28.3993
lwrist -10.8965
lhand -5.35714 23.6328
lfingers 7.12502
lthumb 20.4502 52.5758
rfemur -46.542 3.63553 24.2761
rtibia 45.4545
rfoot -17.6054 -12.9653
rtoes -10.185
lfemur -56.7258 7.45321 -25.5802
ltibia 98.3667
lfoot -11.3162 2.78401
ltoes -19.2673
1211
root 5.14754 16.7281 6.19688 25.5072 -4.45534 0.323989
lowerback -8.29306 -1.14245 -2.71887
upperback -12.965 -1.40444 1.83126
thorax -9.03426 -0.365182 3.46845
lowerneck -10.6832 -0.975943 -4.76726
upperneck 49.1581 1.13437 -2.74583
head 22.3193 -0.926425 -0.372583
rclavicle 1.15544e-014 -1.47101e-014
rhumerus -43.8477 5.55176 -74.9473
rradius 29.4195
rwrist 15.9177
rhand -14.3594 -15.5612
rfingers 7.12502
rthumb 11.7825 -45.2098
lclavicle 1.15544e-014 -1.47101e-014
lhumerus -54.7755 6.56477 77.4543
lradius 28.7597
lwrist -11.3648
lhand -4.803 23.2476
lfingers 7.12502
lthumb 20.9827 52.1326
rfemur -46.0862 3.89505 24.3864
rtibia 45.3648
rfoot -17.6394 -13.3854
rtoes -11.1693
lfemur -57.6593 7.19649 -25.4932
ltibia 98.0597
lfoot -11.5618 3.24258
ltoes -19.034
1212
root 5.14242 16.729 6.29384 25.5194 -4.40002 0.189846
lowerback -8.24276 -1.08774 -2.61561
upperback -12.929 -1.33016 1.87717
thorax -9.02784 -0.334954 3.46054
lowerneck -10.6923 -1.05696 -4.90944
upperneck 49.1442 0.995903 -2.63386
head 22.3101 -0.990855 -0.311052
rclavicle -2.04748e-014 1.03368e-014
rhumerus -43.6549 5.98328 -75.4557
rradius 30.0151
rwrist 15.3096
rhand -14.5497 -15.7577
rfingers 7.12502
rthumb 11.599 -45.4167
lclavicle -2.04748e-014 1.03368e-014
lhumerus -54.884 6.17008 77.9373
lradius 29.1888
lwrist -11.4271
lhand -4.18635 22.9321
lfingers 7.12502
lthumb 21.575 51.7503
rfemur -45.6017 4.13969 24.4517
rtibia 45.2273
rfoot -17.7248 -13.7834
rtoes -12.1118
lfemur -58.5849 6.89051 -25.4686
ltibia 97.5361
lfoot -11.8793 3.80246
ltoes -19.4316
1213
root 5.13848 16.7332 6.39388 25.5301 -4.35119 0.10977
lowerback -8.2208 -1.04493 -2.54527
upperback -12.8882 -1.27184 1.90233
thorax -8.99846 -0.311487 3.44787
lowerneck -10.7417 -1.14108 -5.0281
upperneck 49.1371 0.859653 -2.54691
head 22.3243 -1.05361 -0.268208
rclavicle -4.00054e-015 -4.77083e-015
rhumerus -43.4071 6.42452 -76.0258
rradius 30.4321
rwrist 15.114
rhand -15.125 -15.5234
rfingers 7.12502
rthumb 11.0442 -45.2128
lclavicle -4.00054e-015 -4.77083e-015
lhumerus -55.0366 5.72832 78.4463
lradius 29.6349
lwrist -11.3815
lhand -4.0354 22.22
lfingers 7.12502
lthumb 21.72 51.0215
rfemur -45.101 4.37605 24.4525
rtibia 45.0792
rfoot -17.984 -14.1344
rtoes -12.5071
lfemur -59.3584 6.5296 -25.4703
ltibia 96.7787
lfoot -12.1607 4.38489
ltoes -19.5426
1214
root 5.13483 16.7385 6.4946 25.5386 -4.31859 0.137056
lowerback -8.2096 -1.01763 -2.60681
upperback -12.8543 -1.23245 1.90825
thorax -8.96873 -0.286334 3.48829
lowerneck -10.738 -1.21309 -5.17832
upperneck 49.101 0.734262 -2.42765
head 22.2912 -1.11309 -0.197685
rclavicle 8.62228e-015 1.03368e-014
rhumerus -43.2778 6.8977 -76.6131
rradius 31.1476
rwrist 14.4826
rhand -15.2805 -15.9009
rfingers 7.12502
rthumb 10.8942 -45.5983
lclavicle 8.62228e-015 1.03368e-014
lhumerus -55.1337 5.372 78.9218
lradius 30.1157
lwrist -10.8136
lhand -3.85441 22.2661
lfingers 7.12502
lthumb 21.8938 51.0474
rfemur -44.6209 4.5535 24.3453
rtibia 44.9444
rfoot -18.3594 -14.3941
rtoes -12.3553
lfemur -60.0367 6.08993 -25.5666
ltibia 95.8014
lfoot -12.4419 4.9928
ltoes -19.5642
1215
root 5.13142 16.746 6.59478 25.535 -4.2672 0.220744
lowerback -8.16117 -1.00962 -2.70694
upperback -12.8327 -1.22023 1.89656
thorax -8.97229 -0.271426 3.53245
lowerneck -10.7743 -1.28849 -5.32874
upperneck 49.0956 0.614142 -2.32176
head 22.3035 -1.17358 -0.135082
rclavicle 4.96962e-016 -2.22639e-014
rhumerus -43.1921 7.43752 -77.2373
rradius 31.8222
rwrist 13.8169
rhand -15.609 -15.7284
rfingers 7.12502
rthumb 10.5774 -45.4422
lclavicle 4.96962e-016 -2.22639e-014
lhumerus -55.2962 4.95695 79.4229
lradius 30.6294
lwrist -10.0705
lhand -4.12243 21.8923
lfingers 7.12502
lthumb 21.6364 50.7035
rfemur -44.1439 4.68732 24.1924
rtibia 44.8249
rfoot -18.7994 -14.6554
rtoes -12.0721
lfemur -60.7237 5.57786 -25.6978
ltibia 94.58
lfoot -12.638 5.55968
ltoes -18.8586
1216
root 5.13009 16.7525 6.69632 25.5355 -4.23092 0.351853
lowerback -8.22837 -1.00139 -2.83266
upperback -12.7514 -1.20543 1.85916
thorax -8.84161 -0.258178 3.55937
lowerneck -10.8382 -1.3802 -5.47374
upperneck 49.0263 0.46576 -2.2153
head 22.269 -1.24192 -0.0773218
rclavicle -1.81143e-014 9.14409e-015
rhumerus -42.9999 7.91447 -77.8566
rradius 32.5159
rwrist 13.1542
rhand -15.7142 -15.879
rfingers 7.12502
rthumb 10.4758 -45.598
lclavicle -1.81143e-014 9.14409e-015
lhumerus -55.4189 4.57061 79.9162
lradius 31.2343
lwrist -9.05687
lhand -4.20337 22.2823
lfingers 7.12502
lthumb 21.5587 51.1023
rfemur -43.6863 4.77654 23.9891
rtibia 44.7332
rfoot -19.242 -14.8609
rtoes -11.857
lfemur -61.2994 5.05946 -25.8732
ltibia 93.18
lfoot -12.6491 6.14083
ltoes -18.5244
1217
root 5.1293 16.7577 6.79885 25.5095 -4.21235 0.511879
lowerback -8.12347 -0.996975 -2.9852
upperback -12.758 -1.20093 1.81394
thorax -8.90963 -0.242563 3.5989
lowerneck -10.8451 -1.44802 -5.60096
upperneck 48.9957 0.354505 -2.12547
head 22.2478 -1.29593 -0.0254188
rclavicle 1.13804e-014 -3.97569e-015
rhumerus -42.9516 8.44288 -78.5136
rradius 33.2337
rwrist 12.4937
rhand -15.9061 -15.8312
rfingers 7.12502
rthumb 10.2907 -45.5594
lclavicle 1.13804e-014 -3.97569e-015
lhumerus -55.6098 4.2067 80.3488
lradius 31.7373
lwrist -7.90009
lhand -4.65637 22.3978
lfingers 7.12502
lthumb 21.1235 51.2671
rfemur -43.215 4.86691 23.7595
rtibia 44.6664
rfoot -19.6433 -15.103
rtoes -11.7014
lfemur -61.7829 4.5337 -26.0578
ltibia 91.589
lfoot -12.7098 6.70503
ltoes -18.4768
1218
root 5.12969 16.7623 6.90468 25.4487 -4.22457 0.632996
lowerback -8.03551 -0.975116 -3.09043
upperback -12.7379 -1.17412 1.76205
thorax -8.93969 -0.221702 3.60382
lowerneck -10.8637 -1.51682 -5.73224
upperneck 48.9392 0.239483 -2.02687
head 22.2083 -1.35059 0.0317468
rclavicle -1.68967e-015 1.27222e-014
rhumerus -42.8567 8.93852 -79.1642
rradius 33.8867
rwrist 11.916
rhand -15.9846 -15.6681
rfingers 7.12502
rthumb 10.215 -45.4001
lclavicle -1.68967e-015 1.27222e-014
lhumerus -55.8348 3.82887 80.7631
lradius 32.3104
lwrist -6.63767
lhand -5.17831 22.5696
lfingers 7.12502
lthumb 20.6221 51.4941
rfemur -42.6978 4.97848 23.5607
rtibia 44.6089
rfoot -20.2038 -15.2368
rtoes -10.8987
lfemur -62.118 4.08061 -26.1998
ltibia 89.8534
lfoot -12.7854 7.34161
ltoes -18.6566
1219
root 5.13093 16.7643 7.00885 25.4853 -4.21388 0.763103
lowerback -8.00879 -0.962793 -3.1862
upperback -12.7527 -1.15944 1.70551
thorax -8.97385 -0.207527 3.59787
lowerneck -10.9083 -1.58188 -5.86462
upperneck 48.8732 0.130352 -1.92098
head 22.1707 -1.40217 0.0941349
rclavicle 1.45361e-014 1.59028e-014
rhumerus -42.8319 9.5241 -79.8996
rradius 34.7152
rwrist 11.1351
rhand -15.8248 -16.138
rfingers 7.12502
rthumb 10.3692 -45.8623
lclavicle 1.45361e-014 1.59028e-014
lhumerus -56.0323 3.46913 81.1545
lradius 32.8561
lwrist -5.38401
lhand -5.75004 22.9812
lfingers 7.12502
lthumb 20.0726 51.9643
rfemur -42.2926 5.0545 23.3656
rtibia 44.5539
rfoot -20.6147 -15.422
rtoes -10.6357
lfemur -62.5369 3.58574 -26.322
ltibia 87.9558
lfoot -12.857 8.01025
ltoes -18.8614
1220
root 5.13293 16.7671 7.11343 25.5421 -4.2564 0.867541
lowerback -8.07111 -0.926435 -3.26393
upperback -12.7262 -1.10959 1.64977
thorax -8.91262 -0.180222 3.58009
lowerneck -11.0054 -1.65982 -6.01596
upperneck 48.7774 0.0107046 -1.81267
head 22.1283 -1.46018 0.159432
rclavicle -1.27719e-014 -1.23246e-014
rhumerus -42.744 10.0331 -80.558
rradius 35.4724
rwrist 10.5566
rhand -15.8631 -16.002
rfingers 7.12502
rthumb 10.3322 -45.7282
lclavicle -1.27719e-014 -1.23246e-014
lhumerus -56.153 3.13896 81.5348
lradius 33.393
lwrist -4.24153
lhand -6.47242 23.0557
lfingers 7.12502
lthumb 19.3782 52.1101
rfemur -41.8915 5.21842 23.1538
rtibia 44.4647
rfoot -21.0143 -15.5983
rtoes -10.3754
lfemur -62.9209 3.16375 -26.4173
ltibia 85.9
lfoot -12.9476 8.66646
ltoes -18.9507
1221
root 5.13526 16.7711 7.2205 25.5866 -4.32247 0.942453
lowerback -8.10102 -0.883898 -3.32527
upperback -12.7327 -1.05285 1.60074
thorax -8.90865 -0.148816 3.56186
lowerneck -11.0055 -1.72768 -6.15173
upperneck 48.6703 -0.104884 -1.71137
head 22.039 -1.51396 0.219594
rclavicle -7.0817e-015 -2.3059e-014
rhumerus -42.7082 10.6143 -81.2504
rradius 36.1818
rwrist 9.99503
rhand -15.7817 -15.8768
rfingers 7.12502
rthumb 10.4108 -45.5991
lclavicle -7.0817e-015 -2.3059e-014
lhumerus -56.339 2.85786 81.8577
lradius 33.915
lwrist -3.16493
lhand -7.13831 23.3214
lfingers 7.12502
lthumb 18.7378 52.4389
rfemur -41.4547 5.412 22.9713
rtibia 44.3489
rfoot -21.3812 -15.7908
rtoes -10.1624
lfemur -63.1961 2.79804 -26.4611
ltibia 83.6846
lfoot -12.976 9.35471
ltoes -18.973
